<mxfile host="app.diagrams.net" agent="Mozilla/5.0 (Windows NT 10.0; Win64; x64) AppleWebKit/537.36 (KHTML, like Gecko) Chrome/139.0.0.0 Safari/537.36" version="28.1.0">
  <diagram name="Page-1" id="fjOL4ha1FxzXxSI-WojR">
    <mxGraphModel dx="872" dy="473" grid="1" gridSize="10" guides="1" tooltips="1" connect="1" arrows="1" fold="1" page="1" pageScale="1" pageWidth="850" pageHeight="1100" math="0" shadow="0">
      <root>
        <mxCell id="0" />
        <mxCell id="1" parent="0" />
        <mxCell id="QpFOkM9f67Bnaxhh_ZT6-3" value="" style="endArrow=none;html=1;rounded=0;strokeWidth=3;" parent="1" edge="1">
          <mxGeometry width="50" height="50" relative="1" as="geometry">
            <mxPoint x="120" y="40" as="sourcePoint" />
            <mxPoint x="240" y="40" as="targetPoint" />
            <Array as="points">
              <mxPoint x="180" y="40" />
            </Array>
          </mxGeometry>
        </mxCell>
        <mxCell id="QpFOkM9f67Bnaxhh_ZT6-4" value="" style="endArrow=none;html=1;rounded=0;strokeWidth=3;" parent="1" edge="1">
          <mxGeometry width="50" height="50" relative="1" as="geometry">
            <mxPoint x="240" y="40" as="sourcePoint" />
            <mxPoint x="240" y="160" as="targetPoint" />
          </mxGeometry>
        </mxCell>
        <mxCell id="QpFOkM9f67Bnaxhh_ZT6-5" value="" style="endArrow=none;html=1;rounded=0;strokeWidth=3;" parent="1" edge="1">
          <mxGeometry width="50" height="50" relative="1" as="geometry">
            <mxPoint x="120" y="40" as="sourcePoint" />
            <mxPoint x="120" y="160" as="targetPoint" />
          </mxGeometry>
        </mxCell>
        <mxCell id="QpFOkM9f67Bnaxhh_ZT6-6" value="" style="endArrow=none;html=1;rounded=0;strokeWidth=3;" parent="1" edge="1">
          <mxGeometry width="50" height="50" relative="1" as="geometry">
            <mxPoint x="200" y="200" as="sourcePoint" />
            <mxPoint x="240" y="160" as="targetPoint" />
          </mxGeometry>
        </mxCell>
        <mxCell id="QpFOkM9f67Bnaxhh_ZT6-7" value="" style="endArrow=none;html=1;rounded=0;strokeWidth=3;" parent="1" edge="1">
          <mxGeometry width="50" height="50" relative="1" as="geometry">
            <mxPoint x="160" y="200" as="sourcePoint" />
            <mxPoint x="120" y="160" as="targetPoint" />
          </mxGeometry>
        </mxCell>
        <mxCell id="QpFOkM9f67Bnaxhh_ZT6-8" value="" style="shape=image;html=1;verticalAlign=top;verticalLabelPosition=bottom;labelBackgroundColor=#ffffff;imageAspect=0;aspect=fixed;image=https://icons.diagrams.net/icon-cache1/Date_and_time_-_Fill_outline-2713/Alarm_clock_digital_time-513.svg" parent="1" vertex="1">
          <mxGeometry x="153" y="113" width="54" height="54" as="geometry" />
        </mxCell>
        <mxCell id="QpFOkM9f67Bnaxhh_ZT6-9" value="" style="rounded=1;whiteSpace=wrap;html=1;fillColor=#ffe6cc;strokeColor=light-dark(#0f0b00, #996500);" parent="1" vertex="1">
          <mxGeometry x="160" y="201" width="40" height="30" as="geometry" />
        </mxCell>
        <mxCell id="QpFOkM9f67Bnaxhh_ZT6-12" value="" style="endArrow=none;dashed=1;html=1;rounded=0;" parent="1" edge="1">
          <mxGeometry width="50" height="50" relative="1" as="geometry">
            <mxPoint x="119" y="64" as="sourcePoint" />
            <mxPoint x="240" y="64" as="targetPoint" />
          </mxGeometry>
        </mxCell>
        <mxCell id="wkbVZkU-VHNads3LhF48-58" style="edgeStyle=orthogonalEdgeStyle;rounded=0;orthogonalLoop=1;jettySize=auto;html=1;exitX=1;exitY=0.5;exitDx=0;exitDy=0;exitPerimeter=0;entryX=0.5;entryY=0;entryDx=0;entryDy=0;" edge="1" parent="1" source="QpFOkM9f67Bnaxhh_ZT6-13" target="QpFOkM9f67Bnaxhh_ZT6-17">
          <mxGeometry relative="1" as="geometry" />
        </mxCell>
        <mxCell id="QpFOkM9f67Bnaxhh_ZT6-13" value="" style="shape=or;whiteSpace=wrap;html=1;rotation=90;fillColor=#ffe6cc;strokeColor=#000000;" parent="1" vertex="1">
          <mxGeometry x="167.5" y="223.5" width="25" height="40" as="geometry" />
        </mxCell>
        <mxCell id="QpFOkM9f67Bnaxhh_ZT6-15" value="" style="endArrow=none;dashed=1;html=1;rounded=0;dashPattern=1 4;" parent="1" edge="1">
          <mxGeometry width="50" height="50" relative="1" as="geometry">
            <mxPoint x="119.5" y="160" as="sourcePoint" />
            <mxPoint x="120" y="380" as="targetPoint" />
          </mxGeometry>
        </mxCell>
        <mxCell id="QpFOkM9f67Bnaxhh_ZT6-16" value="" style="endArrow=none;dashed=1;html=1;rounded=0;dashPattern=1 4;" parent="1" edge="1">
          <mxGeometry width="50" height="50" relative="1" as="geometry">
            <mxPoint x="240" y="160" as="sourcePoint" />
            <mxPoint x="400" y="160" as="targetPoint" />
          </mxGeometry>
        </mxCell>
        <mxCell id="wkbVZkU-VHNads3LhF48-27" style="edgeStyle=orthogonalEdgeStyle;rounded=0;orthogonalLoop=1;jettySize=auto;html=1;exitX=0.5;exitY=0.75;exitDx=0;exitDy=0;exitPerimeter=0;" edge="1" parent="1" source="QpFOkM9f67Bnaxhh_ZT6-17" target="wkbVZkU-VHNads3LhF48-1">
          <mxGeometry relative="1" as="geometry" />
        </mxCell>
        <mxCell id="QpFOkM9f67Bnaxhh_ZT6-17" value="" style="shape=image;html=1;verticalAlign=top;verticalLabelPosition=bottom;labelBackgroundColor=#ffffff;imageAspect=0;aspect=fixed;image=https://icons.diagrams.net/icon-cache1/Food_and_Equipment__Line_-2144/bowl-1206.svg" parent="1" vertex="1">
          <mxGeometry x="130" y="280" width="100" height="100" as="geometry" />
        </mxCell>
        <mxCell id="QpFOkM9f67Bnaxhh_ZT6-18" value="" style="ellipse;whiteSpace=wrap;html=1;aspect=fixed;fillColor=light-dark(#e47d4e, #d28f70);fontColor=#ffffff;strokeColor=#6D1F00;shadow=1;align=center;verticalAlign=middle;fontFamily=Helvetica;fontSize=12;" parent="1" vertex="1">
          <mxGeometry x="120" y="70" width="10" height="10" as="geometry" />
        </mxCell>
        <mxCell id="QpFOkM9f67Bnaxhh_ZT6-19" value="" style="ellipse;whiteSpace=wrap;html=1;aspect=fixed;" parent="1" vertex="1">
          <mxGeometry x="130" y="80" width="10" height="10" as="geometry" />
        </mxCell>
        <mxCell id="QpFOkM9f67Bnaxhh_ZT6-20" value="" style="ellipse;whiteSpace=wrap;html=1;aspect=fixed;fillColor=light-dark(#e47d4e, #d28f70);fontColor=#ffffff;strokeColor=#6D1F00;shadow=1;align=center;verticalAlign=middle;fontFamily=Helvetica;fontSize=12;" parent="1" vertex="1">
          <mxGeometry x="130" y="80" width="10" height="10" as="geometry" />
        </mxCell>
        <mxCell id="QpFOkM9f67Bnaxhh_ZT6-21" value="" style="ellipse;whiteSpace=wrap;html=1;aspect=fixed;" parent="1" vertex="1">
          <mxGeometry x="150" y="90" width="10" height="10" as="geometry" />
        </mxCell>
        <mxCell id="QpFOkM9f67Bnaxhh_ZT6-22" value="" style="ellipse;whiteSpace=wrap;html=1;aspect=fixed;fillColor=light-dark(#e47d4e, #d28f70);fontColor=#ffffff;strokeColor=#6D1F00;shadow=1;align=center;verticalAlign=middle;fontFamily=Helvetica;fontSize=12;" parent="1" vertex="1">
          <mxGeometry x="150" y="90" width="10" height="10" as="geometry" />
        </mxCell>
        <mxCell id="QpFOkM9f67Bnaxhh_ZT6-23" value="" style="ellipse;whiteSpace=wrap;html=1;aspect=fixed;fillColor=light-dark(#e47d4e, #d28f70);fontColor=#ffffff;strokeColor=#6D1F00;shadow=1;align=center;verticalAlign=middle;fontFamily=Helvetica;fontSize=12;" parent="1" vertex="1">
          <mxGeometry x="170" y="80" width="10" height="10" as="geometry" />
        </mxCell>
        <mxCell id="QpFOkM9f67Bnaxhh_ZT6-24" value="" style="ellipse;whiteSpace=wrap;html=1;aspect=fixed;fillColor=light-dark(#e47d4e, #d28f70);fontColor=#ffffff;strokeColor=#6D1F00;shadow=1;align=center;verticalAlign=middle;fontFamily=Helvetica;fontSize=12;" parent="1" vertex="1">
          <mxGeometry x="190" y="90" width="10" height="10" as="geometry" />
        </mxCell>
        <mxCell id="QpFOkM9f67Bnaxhh_ZT6-25" value="" style="ellipse;whiteSpace=wrap;html=1;aspect=fixed;fillColor=light-dark(#e47d4e, #d28f70);fontColor=#ffffff;strokeColor=#6D1F00;shadow=1;align=center;verticalAlign=middle;fontFamily=Helvetica;fontSize=12;" parent="1" vertex="1">
          <mxGeometry x="160" y="80" width="10" height="10" as="geometry" />
        </mxCell>
        <mxCell id="QpFOkM9f67Bnaxhh_ZT6-26" value="" style="ellipse;whiteSpace=wrap;html=1;aspect=fixed;fillColor=light-dark(#e47d4e, #d28f70);fontColor=#ffffff;strokeColor=#6D1F00;shadow=1;align=center;verticalAlign=middle;fontFamily=Helvetica;fontSize=12;" parent="1" vertex="1">
          <mxGeometry x="150" y="70" width="10" height="10" as="geometry" />
        </mxCell>
        <mxCell id="QpFOkM9f67Bnaxhh_ZT6-27" value="" style="ellipse;whiteSpace=wrap;html=1;aspect=fixed;fillColor=light-dark(#e47d4e, #d28f70);fontColor=#ffffff;strokeColor=#6D1F00;shadow=1;align=center;verticalAlign=middle;fontFamily=Helvetica;fontSize=12;" parent="1" vertex="1">
          <mxGeometry x="190" y="80" width="10" height="10" as="geometry" />
        </mxCell>
        <mxCell id="QpFOkM9f67Bnaxhh_ZT6-28" value="" style="ellipse;whiteSpace=wrap;html=1;aspect=fixed;fillColor=light-dark(#e47d4e, #d28f70);fontColor=#ffffff;strokeColor=#6D1F00;shadow=1;align=center;verticalAlign=middle;fontFamily=Helvetica;fontSize=12;" parent="1" vertex="1">
          <mxGeometry x="160" y="100" width="10" height="10" as="geometry" />
        </mxCell>
        <mxCell id="QpFOkM9f67Bnaxhh_ZT6-29" value="" style="ellipse;whiteSpace=wrap;html=1;aspect=fixed;fillColor=light-dark(#e47d4e, #d28f70);fontColor=#ffffff;strokeColor=#6D1F00;shadow=1;align=center;verticalAlign=middle;fontFamily=Helvetica;fontSize=12;" parent="1" vertex="1">
          <mxGeometry x="140" y="100" width="10" height="10" as="geometry" />
        </mxCell>
        <mxCell id="QpFOkM9f67Bnaxhh_ZT6-30" value="" style="ellipse;whiteSpace=wrap;html=1;aspect=fixed;" parent="1" vertex="1">
          <mxGeometry x="140" y="70" width="10" height="10" as="geometry" />
        </mxCell>
        <mxCell id="QpFOkM9f67Bnaxhh_ZT6-32" value="" style="ellipse;whiteSpace=wrap;html=1;aspect=fixed;fillColor=light-dark(#e47d4e, #d28f70);fontColor=#ffffff;strokeColor=#6D1F00;shadow=1;align=center;verticalAlign=middle;fontFamily=Helvetica;fontSize=12;" parent="1" vertex="1">
          <mxGeometry x="190" y="70" width="10" height="10" as="geometry" />
        </mxCell>
        <mxCell id="QpFOkM9f67Bnaxhh_ZT6-33" value="" style="ellipse;whiteSpace=wrap;html=1;aspect=fixed;fillColor=light-dark(#e47d4e, #d28f70);fontColor=#ffffff;strokeColor=#6D1F00;shadow=1;align=center;verticalAlign=middle;fontFamily=Helvetica;fontSize=12;" parent="1" vertex="1">
          <mxGeometry x="210" y="100" width="10" height="10" as="geometry" />
        </mxCell>
        <mxCell id="QpFOkM9f67Bnaxhh_ZT6-35" value="" style="ellipse;whiteSpace=wrap;html=1;aspect=fixed;fillColor=light-dark(#e47d4e, #d28f70);fontColor=#ffffff;strokeColor=#6D1F00;shadow=1;align=center;verticalAlign=middle;fontFamily=Helvetica;fontSize=12;" parent="1" vertex="1">
          <mxGeometry x="170" y="90" width="10" height="10" as="geometry" />
        </mxCell>
        <mxCell id="QpFOkM9f67Bnaxhh_ZT6-36" value="" style="ellipse;whiteSpace=wrap;html=1;aspect=fixed;fillColor=light-dark(#e47d4e, #d28f70);fontColor=#ffffff;strokeColor=#6D1F00;shadow=1;align=center;verticalAlign=middle;fontFamily=Helvetica;fontSize=12;" parent="1" vertex="1">
          <mxGeometry x="120" y="110" width="10" height="10" as="geometry" />
        </mxCell>
        <mxCell id="QpFOkM9f67Bnaxhh_ZT6-37" value="" style="ellipse;whiteSpace=wrap;html=1;aspect=fixed;" parent="1" vertex="1">
          <mxGeometry x="130" y="120" width="10" height="10" as="geometry" />
        </mxCell>
        <mxCell id="QpFOkM9f67Bnaxhh_ZT6-38" value="" style="ellipse;whiteSpace=wrap;html=1;aspect=fixed;fillColor=light-dark(#e47d4e, #d28f70);fontColor=#ffffff;strokeColor=#6D1F00;shadow=1;align=center;verticalAlign=middle;fontFamily=Helvetica;fontSize=12;" parent="1" vertex="1">
          <mxGeometry x="120" y="100" width="10" height="10" as="geometry" />
        </mxCell>
        <mxCell id="QpFOkM9f67Bnaxhh_ZT6-39" value="" style="ellipse;whiteSpace=wrap;html=1;aspect=fixed;fillColor=light-dark(#e47d4e, #d28f70);fontColor=#ffffff;strokeColor=#6D1F00;shadow=1;align=center;verticalAlign=middle;fontFamily=Helvetica;fontSize=12;" parent="1" vertex="1">
          <mxGeometry x="140" y="70" width="10" height="10" as="geometry" />
        </mxCell>
        <mxCell id="QpFOkM9f67Bnaxhh_ZT6-41" value="" style="ellipse;whiteSpace=wrap;html=1;aspect=fixed;fillColor=light-dark(#e47d4e, #d28f70);fontColor=#ffffff;strokeColor=#6D1F00;shadow=1;align=center;verticalAlign=middle;fontFamily=Helvetica;fontSize=12;" parent="1" vertex="1">
          <mxGeometry x="140" y="80" width="10" height="10" as="geometry" />
        </mxCell>
        <mxCell id="QpFOkM9f67Bnaxhh_ZT6-42" value="" style="ellipse;whiteSpace=wrap;html=1;aspect=fixed;fillColor=light-dark(#e47d4e, #d28f70);fontColor=#ffffff;strokeColor=#6D1F00;shadow=1;align=center;verticalAlign=middle;fontFamily=Helvetica;fontSize=12;" parent="1" vertex="1">
          <mxGeometry x="130" y="100" width="10" height="10" as="geometry" />
        </mxCell>
        <mxCell id="QpFOkM9f67Bnaxhh_ZT6-43" value="" style="ellipse;whiteSpace=wrap;html=1;aspect=fixed;fillColor=light-dark(#e47d4e, #d28f70);fontColor=#ffffff;strokeColor=#6D1F00;shadow=1;align=center;verticalAlign=middle;fontFamily=Helvetica;fontSize=12;" parent="1" vertex="1">
          <mxGeometry x="120" y="80" width="10" height="10" as="geometry" />
        </mxCell>
        <mxCell id="QpFOkM9f67Bnaxhh_ZT6-44" value="" style="ellipse;whiteSpace=wrap;html=1;aspect=fixed;fillColor=light-dark(#e47d4e, #d28f70);fontColor=#ffffff;strokeColor=#6D1F00;shadow=1;align=center;verticalAlign=middle;fontFamily=Helvetica;fontSize=12;" parent="1" vertex="1">
          <mxGeometry x="210" y="70" width="10" height="10" as="geometry" />
        </mxCell>
        <mxCell id="QpFOkM9f67Bnaxhh_ZT6-45" value="" style="ellipse;whiteSpace=wrap;html=1;aspect=fixed;fillColor=light-dark(#e47d4e, #d28f70);fontColor=#ffffff;strokeColor=#6D1F00;shadow=1;align=center;verticalAlign=middle;fontFamily=Helvetica;fontSize=12;" parent="1" vertex="1">
          <mxGeometry x="200" y="80" width="10" height="10" as="geometry" />
        </mxCell>
        <mxCell id="QpFOkM9f67Bnaxhh_ZT6-46" value="" style="ellipse;whiteSpace=wrap;html=1;aspect=fixed;fillColor=light-dark(#e47d4e, #d28f70);fontColor=#ffffff;strokeColor=#6D1F00;shadow=1;align=center;verticalAlign=middle;fontFamily=Helvetica;fontSize=12;" parent="1" vertex="1">
          <mxGeometry x="190" y="110" width="10" height="10" as="geometry" />
        </mxCell>
        <mxCell id="QpFOkM9f67Bnaxhh_ZT6-47" value="" style="ellipse;whiteSpace=wrap;html=1;aspect=fixed;fillColor=light-dark(#e47d4e, #d28f70);fontColor=#ffffff;strokeColor=#6D1F00;shadow=1;align=center;verticalAlign=middle;fontFamily=Helvetica;fontSize=12;" parent="1" vertex="1">
          <mxGeometry x="180" y="100" width="10" height="10" as="geometry" />
        </mxCell>
        <mxCell id="QpFOkM9f67Bnaxhh_ZT6-48" value="" style="ellipse;whiteSpace=wrap;html=1;aspect=fixed;fillColor=light-dark(#e47d4e, #d28f70);fontColor=#ffffff;strokeColor=#6D1F00;shadow=1;align=center;verticalAlign=middle;fontFamily=Helvetica;fontSize=12;" parent="1" vertex="1">
          <mxGeometry x="180" y="80" width="10" height="10" as="geometry" />
        </mxCell>
        <mxCell id="QpFOkM9f67Bnaxhh_ZT6-49" value="" style="ellipse;whiteSpace=wrap;html=1;aspect=fixed;fillColor=light-dark(#e47d4e, #d28f70);fontColor=#ffffff;strokeColor=#6D1F00;shadow=1;align=center;verticalAlign=middle;fontFamily=Helvetica;fontSize=12;" parent="1" vertex="1">
          <mxGeometry x="170" y="70" width="10" height="10" as="geometry" />
        </mxCell>
        <mxCell id="QpFOkM9f67Bnaxhh_ZT6-50" value="" style="ellipse;whiteSpace=wrap;html=1;aspect=fixed;fillColor=light-dark(#e47d4e, #d28f70);fontColor=#ffffff;strokeColor=#6D1F00;shadow=1;align=center;verticalAlign=middle;fontFamily=Helvetica;fontSize=12;" parent="1" vertex="1">
          <mxGeometry x="160" y="70" width="10" height="10" as="geometry" />
        </mxCell>
        <mxCell id="QpFOkM9f67Bnaxhh_ZT6-61" value="" style="ellipse;whiteSpace=wrap;html=1;aspect=fixed;fillColor=light-dark(#e47d4e, #d28f70);fontColor=#ffffff;strokeColor=#6D1F00;shadow=1;align=center;verticalAlign=middle;fontFamily=Helvetica;fontSize=12;" parent="1" vertex="1">
          <mxGeometry x="200" y="70" width="10" height="10" as="geometry" />
        </mxCell>
        <mxCell id="QpFOkM9f67Bnaxhh_ZT6-62" value="" style="ellipse;whiteSpace=wrap;html=1;aspect=fixed;fillColor=light-dark(#e47d4e, #d28f70);fontColor=#ffffff;strokeColor=#6D1F00;shadow=1;align=center;verticalAlign=middle;fontFamily=Helvetica;fontSize=12;" parent="1" vertex="1">
          <mxGeometry x="180" y="70" width="10" height="10" as="geometry" />
        </mxCell>
        <mxCell id="QpFOkM9f67Bnaxhh_ZT6-63" value="" style="ellipse;whiteSpace=wrap;html=1;aspect=fixed;fillColor=light-dark(#e47d4e, #d28f70);fontColor=#ffffff;strokeColor=#6D1F00;shadow=1;align=center;verticalAlign=middle;fontFamily=Helvetica;fontSize=12;" parent="1" vertex="1">
          <mxGeometry x="130" y="70" width="10" height="10" as="geometry" />
        </mxCell>
        <mxCell id="QpFOkM9f67Bnaxhh_ZT6-64" value="" style="ellipse;whiteSpace=wrap;html=1;aspect=fixed;fillColor=light-dark(#e47d4e, #d28f70);fontColor=#ffffff;strokeColor=#6D1F00;shadow=1;align=center;verticalAlign=middle;fontFamily=Helvetica;fontSize=12;" parent="1" vertex="1">
          <mxGeometry x="120" y="90" width="10" height="10" as="geometry" />
        </mxCell>
        <mxCell id="QpFOkM9f67Bnaxhh_ZT6-65" value="" style="ellipse;whiteSpace=wrap;html=1;aspect=fixed;fillColor=light-dark(#e47d4e, #d28f70);fontColor=#ffffff;strokeColor=#6D1F00;shadow=1;align=center;verticalAlign=middle;fontFamily=Helvetica;fontSize=12;" parent="1" vertex="1">
          <mxGeometry x="130" y="90" width="10" height="10" as="geometry" />
        </mxCell>
        <mxCell id="QpFOkM9f67Bnaxhh_ZT6-66" value="" style="ellipse;whiteSpace=wrap;html=1;aspect=fixed;fillColor=light-dark(#e47d4e, #d28f70);fontColor=#ffffff;strokeColor=#6D1F00;shadow=1;align=center;verticalAlign=middle;fontFamily=Helvetica;fontSize=12;" parent="1" vertex="1">
          <mxGeometry x="140" y="90" width="10" height="10" as="geometry" />
        </mxCell>
        <mxCell id="QpFOkM9f67Bnaxhh_ZT6-67" value="" style="ellipse;whiteSpace=wrap;html=1;aspect=fixed;fillColor=light-dark(#e47d4e, #d28f70);fontColor=#ffffff;strokeColor=#6D1F00;shadow=1;align=center;verticalAlign=middle;fontFamily=Helvetica;fontSize=12;" parent="1" vertex="1">
          <mxGeometry x="150" y="80" width="10" height="10" as="geometry" />
        </mxCell>
        <mxCell id="QpFOkM9f67Bnaxhh_ZT6-68" value="" style="ellipse;whiteSpace=wrap;html=1;aspect=fixed;fillColor=light-dark(#e47d4e, #d28f70);fontColor=#ffffff;strokeColor=#6D1F00;shadow=1;align=center;verticalAlign=middle;fontFamily=Helvetica;fontSize=12;" parent="1" vertex="1">
          <mxGeometry x="160" y="90" width="10" height="10" as="geometry" />
        </mxCell>
        <mxCell id="QpFOkM9f67Bnaxhh_ZT6-69" value="" style="ellipse;whiteSpace=wrap;html=1;aspect=fixed;fillColor=light-dark(#e47d4e, #d28f70);fontColor=#ffffff;strokeColor=#6D1F00;shadow=1;align=center;verticalAlign=middle;fontFamily=Helvetica;fontSize=12;" parent="1" vertex="1">
          <mxGeometry x="180" y="90" width="10" height="10" as="geometry" />
        </mxCell>
        <mxCell id="QpFOkM9f67Bnaxhh_ZT6-70" value="" style="ellipse;whiteSpace=wrap;html=1;aspect=fixed;fillColor=light-dark(#e47d4e, #d28f70);fontColor=#ffffff;strokeColor=#6D1F00;shadow=1;align=center;verticalAlign=middle;fontFamily=Helvetica;fontSize=12;" parent="1" vertex="1">
          <mxGeometry x="210" y="80" width="10" height="10" as="geometry" />
        </mxCell>
        <mxCell id="QpFOkM9f67Bnaxhh_ZT6-71" value="" style="ellipse;whiteSpace=wrap;html=1;aspect=fixed;fillColor=light-dark(#e47d4e, #d28f70);fontColor=#ffffff;strokeColor=#6D1F00;shadow=1;align=center;verticalAlign=middle;fontFamily=Helvetica;fontSize=12;" parent="1" vertex="1">
          <mxGeometry x="220" y="80" width="10" height="10" as="geometry" />
        </mxCell>
        <mxCell id="QpFOkM9f67Bnaxhh_ZT6-72" value="" style="ellipse;whiteSpace=wrap;html=1;aspect=fixed;fillColor=light-dark(#e47d4e, #d28f70);fontColor=#ffffff;strokeColor=#6D1F00;shadow=1;align=center;verticalAlign=middle;fontFamily=Helvetica;fontSize=12;" parent="1" vertex="1">
          <mxGeometry x="230" y="70" width="10" height="10" as="geometry" />
        </mxCell>
        <mxCell id="QpFOkM9f67Bnaxhh_ZT6-73" value="" style="ellipse;whiteSpace=wrap;html=1;aspect=fixed;fillColor=light-dark(#e47d4e, #d28f70);fontColor=#ffffff;strokeColor=#6D1F00;shadow=1;align=center;verticalAlign=middle;fontFamily=Helvetica;fontSize=12;" parent="1" vertex="1">
          <mxGeometry x="220" y="70" width="10" height="10" as="geometry" />
        </mxCell>
        <mxCell id="QpFOkM9f67Bnaxhh_ZT6-74" value="" style="ellipse;whiteSpace=wrap;html=1;aspect=fixed;fillColor=light-dark(#e47d4e, #d28f70);fontColor=#ffffff;strokeColor=#6D1F00;shadow=1;align=center;verticalAlign=middle;fontFamily=Helvetica;fontSize=12;" parent="1" vertex="1">
          <mxGeometry x="230" y="90" width="10" height="10" as="geometry" />
        </mxCell>
        <mxCell id="QpFOkM9f67Bnaxhh_ZT6-75" value="" style="ellipse;whiteSpace=wrap;html=1;aspect=fixed;fillColor=light-dark(#e47d4e, #d28f70);fontColor=#ffffff;strokeColor=#6D1F00;shadow=1;align=center;verticalAlign=middle;fontFamily=Helvetica;fontSize=12;" parent="1" vertex="1">
          <mxGeometry x="200" y="90" width="10" height="10" as="geometry" />
        </mxCell>
        <mxCell id="QpFOkM9f67Bnaxhh_ZT6-76" value="" style="ellipse;whiteSpace=wrap;html=1;aspect=fixed;fillColor=light-dark(#e47d4e, #d28f70);fontColor=#ffffff;strokeColor=#6D1F00;shadow=1;align=center;verticalAlign=middle;fontFamily=Helvetica;fontSize=12;" parent="1" vertex="1">
          <mxGeometry x="230" y="80" width="10" height="10" as="geometry" />
        </mxCell>
        <mxCell id="QpFOkM9f67Bnaxhh_ZT6-77" value="" style="ellipse;whiteSpace=wrap;html=1;aspect=fixed;fillColor=light-dark(#e47d4e, #d28f70);fontColor=#ffffff;strokeColor=#6D1F00;shadow=1;align=center;verticalAlign=middle;fontFamily=Helvetica;fontSize=12;" parent="1" vertex="1">
          <mxGeometry x="220" y="90" width="10" height="10" as="geometry" />
        </mxCell>
        <mxCell id="QpFOkM9f67Bnaxhh_ZT6-78" value="" style="ellipse;whiteSpace=wrap;html=1;aspect=fixed;fillColor=light-dark(#e47d4e, #d28f70);fontColor=#ffffff;strokeColor=#6D1F00;shadow=1;align=center;verticalAlign=middle;fontFamily=Helvetica;fontSize=12;" parent="1" vertex="1">
          <mxGeometry x="210" y="90" width="10" height="10" as="geometry" />
        </mxCell>
        <mxCell id="QpFOkM9f67Bnaxhh_ZT6-79" value="" style="ellipse;whiteSpace=wrap;html=1;aspect=fixed;fillColor=light-dark(#e47d4e, #d28f70);fontColor=#ffffff;strokeColor=#6D1F00;shadow=1;align=center;verticalAlign=middle;fontFamily=Helvetica;fontSize=12;" parent="1" vertex="1">
          <mxGeometry x="150" y="100" width="10" height="10" as="geometry" />
        </mxCell>
        <mxCell id="QpFOkM9f67Bnaxhh_ZT6-80" value="" style="ellipse;whiteSpace=wrap;html=1;aspect=fixed;fillColor=light-dark(#e47d4e, #d28f70);fontColor=#ffffff;strokeColor=#6D1F00;shadow=1;align=center;verticalAlign=middle;fontFamily=Helvetica;fontSize=12;" parent="1" vertex="1">
          <mxGeometry x="170" y="100" width="10" height="10" as="geometry" />
        </mxCell>
        <mxCell id="QpFOkM9f67Bnaxhh_ZT6-81" value="" style="ellipse;whiteSpace=wrap;html=1;aspect=fixed;fillColor=light-dark(#e47d4e, #d28f70);fontColor=#ffffff;strokeColor=#6D1F00;shadow=1;align=center;verticalAlign=middle;fontFamily=Helvetica;fontSize=12;" parent="1" vertex="1">
          <mxGeometry x="190" y="100" width="10" height="10" as="geometry" />
        </mxCell>
        <mxCell id="QpFOkM9f67Bnaxhh_ZT6-82" value="" style="ellipse;whiteSpace=wrap;html=1;aspect=fixed;fillColor=light-dark(#e47d4e, #d28f70);fontColor=#ffffff;strokeColor=#6D1F00;shadow=1;align=center;verticalAlign=middle;fontFamily=Helvetica;fontSize=12;" parent="1" vertex="1">
          <mxGeometry x="200" y="100" width="10" height="10" as="geometry" />
        </mxCell>
        <mxCell id="QpFOkM9f67Bnaxhh_ZT6-83" value="" style="ellipse;whiteSpace=wrap;html=1;aspect=fixed;fillColor=light-dark(#e47d4e, #d28f70);fontColor=#ffffff;strokeColor=#6D1F00;shadow=1;align=center;verticalAlign=middle;fontFamily=Helvetica;fontSize=12;" parent="1" vertex="1">
          <mxGeometry x="220" y="100" width="10" height="10" as="geometry" />
        </mxCell>
        <mxCell id="QpFOkM9f67Bnaxhh_ZT6-84" value="" style="ellipse;whiteSpace=wrap;html=1;aspect=fixed;fillColor=light-dark(#e47d4e, #d28f70);fontColor=#ffffff;strokeColor=#6D1F00;shadow=1;align=center;verticalAlign=middle;fontFamily=Helvetica;fontSize=12;" parent="1" vertex="1">
          <mxGeometry x="230" y="100" width="10" height="10" as="geometry" />
        </mxCell>
        <mxCell id="QpFOkM9f67Bnaxhh_ZT6-85" value="" style="ellipse;whiteSpace=wrap;html=1;aspect=fixed;fillColor=light-dark(#e47d4e, #d28f70);fontColor=#ffffff;strokeColor=#6D1F00;shadow=1;align=center;verticalAlign=middle;fontFamily=Helvetica;fontSize=12;" parent="1" vertex="1">
          <mxGeometry x="130" y="110" width="10" height="10" as="geometry" />
        </mxCell>
        <mxCell id="QpFOkM9f67Bnaxhh_ZT6-86" value="" style="ellipse;whiteSpace=wrap;html=1;aspect=fixed;fillColor=light-dark(#e47d4e, #d28f70);fontColor=#ffffff;strokeColor=#6D1F00;shadow=1;align=center;verticalAlign=middle;fontFamily=Helvetica;fontSize=12;" parent="1" vertex="1">
          <mxGeometry x="150" y="110" width="10" height="10" as="geometry" />
        </mxCell>
        <mxCell id="QpFOkM9f67Bnaxhh_ZT6-87" value="" style="ellipse;whiteSpace=wrap;html=1;aspect=fixed;fillColor=light-dark(#e47d4e, #d28f70);fontColor=#ffffff;strokeColor=#6D1F00;shadow=1;align=center;verticalAlign=middle;fontFamily=Helvetica;fontSize=12;" parent="1" vertex="1">
          <mxGeometry x="140" y="110" width="10" height="10" as="geometry" />
        </mxCell>
        <mxCell id="QpFOkM9f67Bnaxhh_ZT6-89" value="" style="ellipse;whiteSpace=wrap;html=1;aspect=fixed;fillColor=light-dark(#e47d4e, #d28f70);fontColor=#ffffff;strokeColor=#6D1F00;shadow=1;align=center;verticalAlign=middle;fontFamily=Helvetica;fontSize=12;" parent="1" vertex="1">
          <mxGeometry x="160" y="110" width="10" height="10" as="geometry" />
        </mxCell>
        <mxCell id="QpFOkM9f67Bnaxhh_ZT6-90" value="" style="ellipse;whiteSpace=wrap;html=1;aspect=fixed;fillColor=light-dark(#e47d4e, #d28f70);fontColor=#ffffff;strokeColor=#6D1F00;shadow=1;align=center;verticalAlign=middle;fontFamily=Helvetica;fontSize=12;" parent="1" vertex="1">
          <mxGeometry x="210" y="110" width="10" height="10" as="geometry" />
        </mxCell>
        <mxCell id="QpFOkM9f67Bnaxhh_ZT6-91" value="" style="ellipse;whiteSpace=wrap;html=1;aspect=fixed;fillColor=light-dark(#e47d4e, #d28f70);fontColor=#ffffff;strokeColor=#6D1F00;shadow=1;align=center;verticalAlign=middle;fontFamily=Helvetica;fontSize=12;" parent="1" vertex="1">
          <mxGeometry x="220" y="110" width="10" height="10" as="geometry" />
        </mxCell>
        <mxCell id="QpFOkM9f67Bnaxhh_ZT6-92" value="" style="ellipse;whiteSpace=wrap;html=1;aspect=fixed;fillColor=light-dark(#e47d4e, #d28f70);fontColor=#ffffff;strokeColor=#6D1F00;shadow=1;align=center;verticalAlign=middle;fontFamily=Helvetica;fontSize=12;" parent="1" vertex="1">
          <mxGeometry x="230" y="110" width="10" height="10" as="geometry" />
        </mxCell>
        <mxCell id="QpFOkM9f67Bnaxhh_ZT6-93" value="" style="ellipse;whiteSpace=wrap;html=1;aspect=fixed;fillColor=light-dark(#e47d4e, #d28f70);fontColor=#ffffff;strokeColor=#6D1F00;shadow=1;align=center;verticalAlign=middle;fontFamily=Helvetica;fontSize=12;" parent="1" vertex="1">
          <mxGeometry x="120" y="120" width="10" height="10" as="geometry" />
        </mxCell>
        <mxCell id="QpFOkM9f67Bnaxhh_ZT6-94" value="" style="ellipse;whiteSpace=wrap;html=1;aspect=fixed;fillColor=light-dark(#e47d4e, #d28f70);fontColor=#ffffff;strokeColor=#6D1F00;shadow=1;align=center;verticalAlign=middle;fontFamily=Helvetica;fontSize=12;" parent="1" vertex="1">
          <mxGeometry x="130" y="120" width="10" height="10" as="geometry" />
        </mxCell>
        <mxCell id="QpFOkM9f67Bnaxhh_ZT6-96" value="" style="ellipse;whiteSpace=wrap;html=1;aspect=fixed;fillColor=light-dark(#e47d4e, #d28f70);fontColor=#ffffff;strokeColor=#6D1F00;shadow=1;align=center;verticalAlign=middle;fontFamily=Helvetica;fontSize=12;" parent="1" vertex="1">
          <mxGeometry x="140" y="120" width="10" height="10" as="geometry" />
        </mxCell>
        <mxCell id="QpFOkM9f67Bnaxhh_ZT6-97" value="" style="ellipse;whiteSpace=wrap;html=1;aspect=fixed;fillColor=light-dark(#e47d4e, #d28f70);fontColor=#ffffff;strokeColor=#6D1F00;shadow=1;align=center;verticalAlign=middle;fontFamily=Helvetica;fontSize=12;" parent="1" vertex="1">
          <mxGeometry x="200" y="110" width="10" height="10" as="geometry" />
        </mxCell>
        <mxCell id="QpFOkM9f67Bnaxhh_ZT6-98" value="" style="ellipse;whiteSpace=wrap;html=1;aspect=fixed;fillColor=light-dark(#e47d4e, #d28f70);fontColor=#ffffff;strokeColor=#6D1F00;shadow=1;align=center;verticalAlign=middle;fontFamily=Helvetica;fontSize=12;" parent="1" vertex="1">
          <mxGeometry x="210" y="120" width="10" height="10" as="geometry" />
        </mxCell>
        <mxCell id="QpFOkM9f67Bnaxhh_ZT6-99" value="" style="ellipse;whiteSpace=wrap;html=1;aspect=fixed;fillColor=light-dark(#e47d4e, #d28f70);fontColor=#ffffff;strokeColor=#6D1F00;shadow=1;align=center;verticalAlign=middle;fontFamily=Helvetica;fontSize=12;" parent="1" vertex="1">
          <mxGeometry x="220" y="120" width="10" height="10" as="geometry" />
        </mxCell>
        <mxCell id="QpFOkM9f67Bnaxhh_ZT6-100" value="" style="ellipse;whiteSpace=wrap;html=1;aspect=fixed;fillColor=light-dark(#e47d4e, #d28f70);fontColor=#ffffff;strokeColor=#6D1F00;shadow=1;align=center;verticalAlign=middle;fontFamily=Helvetica;fontSize=12;" parent="1" vertex="1">
          <mxGeometry x="230" y="120" width="10" height="10" as="geometry" />
        </mxCell>
        <mxCell id="QpFOkM9f67Bnaxhh_ZT6-101" value="" style="ellipse;whiteSpace=wrap;html=1;aspect=fixed;fillColor=light-dark(#e47d4e, #d28f70);fontColor=#ffffff;strokeColor=#6D1F00;shadow=1;align=center;verticalAlign=middle;fontFamily=Helvetica;fontSize=12;" parent="1" vertex="1">
          <mxGeometry x="230" y="130" width="10" height="10" as="geometry" />
        </mxCell>
        <mxCell id="QpFOkM9f67Bnaxhh_ZT6-102" value="" style="ellipse;whiteSpace=wrap;html=1;aspect=fixed;fillColor=light-dark(#e47d4e, #d28f70);fontColor=#ffffff;strokeColor=#6D1F00;shadow=1;align=center;verticalAlign=middle;fontFamily=Helvetica;fontSize=12;" parent="1" vertex="1">
          <mxGeometry x="220" y="130" width="10" height="10" as="geometry" />
        </mxCell>
        <mxCell id="QpFOkM9f67Bnaxhh_ZT6-103" value="" style="ellipse;whiteSpace=wrap;html=1;aspect=fixed;" parent="1" vertex="1">
          <mxGeometry x="210" y="130" width="10" height="10" as="geometry" />
        </mxCell>
        <mxCell id="QpFOkM9f67Bnaxhh_ZT6-104" value="" style="ellipse;whiteSpace=wrap;html=1;aspect=fixed;fillColor=light-dark(#e47d4e, #d28f70);fontColor=#ffffff;strokeColor=#6D1F00;shadow=1;align=center;verticalAlign=middle;fontFamily=Helvetica;fontSize=12;" parent="1" vertex="1">
          <mxGeometry x="210" y="130" width="10" height="10" as="geometry" />
        </mxCell>
        <mxCell id="QpFOkM9f67Bnaxhh_ZT6-107" value="" style="ellipse;whiteSpace=wrap;html=1;aspect=fixed;fillColor=light-dark(#e47d4e, #d28f70);fontColor=#ffffff;strokeColor=#6D1F00;shadow=1;align=center;verticalAlign=middle;fontFamily=Helvetica;fontSize=12;" parent="1" vertex="1">
          <mxGeometry x="210" y="140" width="10" height="10" as="geometry" />
        </mxCell>
        <mxCell id="QpFOkM9f67Bnaxhh_ZT6-108" value="" style="ellipse;whiteSpace=wrap;html=1;aspect=fixed;fillColor=light-dark(#e47d4e, #d28f70);fontColor=#ffffff;strokeColor=#6D1F00;shadow=1;align=center;verticalAlign=middle;fontFamily=Helvetica;fontSize=12;" parent="1" vertex="1">
          <mxGeometry x="220" y="140" width="10" height="10" as="geometry" />
        </mxCell>
        <mxCell id="QpFOkM9f67Bnaxhh_ZT6-109" value="" style="ellipse;whiteSpace=wrap;html=1;aspect=fixed;fillColor=light-dark(#e47d4e, #d28f70);fontColor=#ffffff;strokeColor=#6D1F00;shadow=1;align=center;verticalAlign=middle;fontFamily=Helvetica;fontSize=12;" parent="1" vertex="1">
          <mxGeometry x="230" y="140" width="10" height="10" as="geometry" />
        </mxCell>
        <mxCell id="QpFOkM9f67Bnaxhh_ZT6-110" value="" style="ellipse;whiteSpace=wrap;html=1;aspect=fixed;fillColor=light-dark(#e47d4e, #d28f70);fontColor=#ffffff;strokeColor=#6D1F00;shadow=1;align=center;verticalAlign=middle;fontFamily=Helvetica;fontSize=12;" parent="1" vertex="1">
          <mxGeometry x="230" y="150" width="10" height="10" as="geometry" />
        </mxCell>
        <mxCell id="QpFOkM9f67Bnaxhh_ZT6-111" value="" style="ellipse;whiteSpace=wrap;html=1;aspect=fixed;fillColor=light-dark(#e47d4e, #d28f70);fontColor=#ffffff;strokeColor=#6D1F00;shadow=1;align=center;verticalAlign=middle;fontFamily=Helvetica;fontSize=12;" parent="1" vertex="1">
          <mxGeometry x="220" y="150" width="10" height="10" as="geometry" />
        </mxCell>
        <mxCell id="QpFOkM9f67Bnaxhh_ZT6-112" value="" style="ellipse;whiteSpace=wrap;html=1;aspect=fixed;fillColor=light-dark(#e47d4e, #d28f70);fontColor=#ffffff;strokeColor=#6D1F00;shadow=1;align=center;verticalAlign=middle;fontFamily=Helvetica;fontSize=12;" parent="1" vertex="1">
          <mxGeometry x="210" y="150" width="10" height="10" as="geometry" />
        </mxCell>
        <mxCell id="QpFOkM9f67Bnaxhh_ZT6-114" value="" style="ellipse;whiteSpace=wrap;html=1;aspect=fixed;fillColor=light-dark(#e47d4e, #d28f70);fontColor=#ffffff;strokeColor=#6D1F00;shadow=1;align=center;verticalAlign=middle;fontFamily=Helvetica;fontSize=12;" parent="1" vertex="1">
          <mxGeometry x="140" y="130" width="10" height="10" as="geometry" />
        </mxCell>
        <mxCell id="QpFOkM9f67Bnaxhh_ZT6-115" value="" style="ellipse;whiteSpace=wrap;html=1;aspect=fixed;fillColor=light-dark(#e47d4e, #d28f70);fontColor=#ffffff;strokeColor=#6D1F00;shadow=1;align=center;verticalAlign=middle;fontFamily=Helvetica;fontSize=12;" parent="1" vertex="1">
          <mxGeometry x="130" y="130" width="10" height="10" as="geometry" />
        </mxCell>
        <mxCell id="QpFOkM9f67Bnaxhh_ZT6-116" value="" style="ellipse;whiteSpace=wrap;html=1;aspect=fixed;fillColor=light-dark(#e47d4e, #d28f70);fontColor=#ffffff;strokeColor=#6D1F00;shadow=1;" parent="1" vertex="1">
          <mxGeometry x="120" y="130" width="10" height="10" as="geometry" />
        </mxCell>
        <mxCell id="QpFOkM9f67Bnaxhh_ZT6-117" value="" style="ellipse;whiteSpace=wrap;html=1;aspect=fixed;fillColor=light-dark(#e47d4e, #d28f70);fontColor=#ffffff;strokeColor=#6D1F00;shadow=1;align=center;verticalAlign=middle;fontFamily=Helvetica;fontSize=12;" parent="1" vertex="1">
          <mxGeometry x="120" y="140" width="10" height="10" as="geometry" />
        </mxCell>
        <mxCell id="QpFOkM9f67Bnaxhh_ZT6-118" value="" style="ellipse;whiteSpace=wrap;html=1;aspect=fixed;fillColor=light-dark(#e47d4e, #d28f70);fontColor=#ffffff;strokeColor=#6D1F00;shadow=1;align=center;verticalAlign=middle;fontFamily=Helvetica;fontSize=12;" parent="1" vertex="1">
          <mxGeometry x="120" y="150" width="10" height="10" as="geometry" />
        </mxCell>
        <mxCell id="QpFOkM9f67Bnaxhh_ZT6-119" value="" style="ellipse;whiteSpace=wrap;html=1;aspect=fixed;fillColor=light-dark(#e47d4e, #d28f70);fontColor=#ffffff;strokeColor=#6D1F00;shadow=1;align=center;verticalAlign=middle;fontFamily=Helvetica;fontSize=12;" parent="1" vertex="1">
          <mxGeometry x="130" y="150" width="10" height="10" as="geometry" />
        </mxCell>
        <mxCell id="QpFOkM9f67Bnaxhh_ZT6-124" value="" style="ellipse;whiteSpace=wrap;html=1;aspect=fixed;" parent="1" vertex="1">
          <mxGeometry x="130" y="160" width="10" height="10" as="geometry" />
        </mxCell>
        <mxCell id="QpFOkM9f67Bnaxhh_ZT6-126" value="" style="ellipse;whiteSpace=wrap;html=1;aspect=fixed;fillColor=light-dark(#e47d4e, #d28f70);fontColor=#ffffff;strokeColor=#6D1F00;shadow=1;align=center;verticalAlign=middle;fontFamily=Helvetica;fontSize=12;" parent="1" vertex="1">
          <mxGeometry x="130" y="160" width="10" height="10" as="geometry" />
        </mxCell>
        <mxCell id="QpFOkM9f67Bnaxhh_ZT6-127" value="" style="ellipse;whiteSpace=wrap;html=1;aspect=fixed;fillColor=light-dark(#e47d4e, #d28f70);fontColor=#ffffff;strokeColor=#6D1F00;shadow=1;align=center;verticalAlign=middle;fontFamily=Helvetica;fontSize=12;" parent="1" vertex="1">
          <mxGeometry x="140" y="170" width="10" height="10" as="geometry" />
        </mxCell>
        <mxCell id="QpFOkM9f67Bnaxhh_ZT6-129" value="" style="ellipse;whiteSpace=wrap;html=1;aspect=fixed;fillColor=light-dark(#e47d4e, #d28f70);fontColor=#ffffff;strokeColor=#6D1F00;shadow=1;align=center;verticalAlign=middle;fontFamily=Helvetica;fontSize=12;" parent="1" vertex="1">
          <mxGeometry x="150" y="180" width="10" height="10" as="geometry" />
        </mxCell>
        <mxCell id="QpFOkM9f67Bnaxhh_ZT6-131" value="" style="ellipse;whiteSpace=wrap;html=1;aspect=fixed;fillColor=light-dark(#e47d4e, #d28f70);fontColor=#ffffff;strokeColor=#6D1F00;shadow=1;align=center;verticalAlign=middle;fontFamily=Helvetica;fontSize=12;" parent="1" vertex="1">
          <mxGeometry x="160" y="190" width="10" height="10" as="geometry" />
        </mxCell>
        <mxCell id="QpFOkM9f67Bnaxhh_ZT6-132" value="" style="ellipse;whiteSpace=wrap;html=1;aspect=fixed;fillColor=light-dark(#e47d4e, #d28f70);fontColor=#ffffff;strokeColor=#6D1F00;shadow=1;align=center;verticalAlign=middle;fontFamily=Helvetica;fontSize=12;" parent="1" vertex="1">
          <mxGeometry x="170" y="190" width="10" height="10" as="geometry" />
        </mxCell>
        <mxCell id="QpFOkM9f67Bnaxhh_ZT6-133" value="" style="ellipse;whiteSpace=wrap;html=1;aspect=fixed;fillColor=light-dark(#e47d4e, #d28f70);fontColor=#ffffff;strokeColor=#6D1F00;shadow=1;align=center;verticalAlign=middle;fontFamily=Helvetica;fontSize=12;" parent="1" vertex="1">
          <mxGeometry x="180" y="190" width="10" height="10" as="geometry" />
        </mxCell>
        <mxCell id="QpFOkM9f67Bnaxhh_ZT6-134" value="" style="ellipse;whiteSpace=wrap;html=1;aspect=fixed;fillColor=light-dark(#e47d4e, #d28f70);fontColor=#ffffff;strokeColor=#6D1F00;shadow=1;align=center;verticalAlign=middle;fontFamily=Helvetica;fontSize=12;" parent="1" vertex="1">
          <mxGeometry x="190" y="190" width="10" height="10" as="geometry" />
        </mxCell>
        <mxCell id="QpFOkM9f67Bnaxhh_ZT6-137" value="" style="ellipse;whiteSpace=wrap;html=1;aspect=fixed;fillColor=light-dark(#e47d4e, #d28f70);fontColor=#ffffff;strokeColor=#6D1F00;shadow=1;align=center;verticalAlign=middle;fontFamily=Helvetica;fontSize=12;" parent="1" vertex="1">
          <mxGeometry x="200" y="180" width="10" height="10" as="geometry" />
        </mxCell>
        <mxCell id="QpFOkM9f67Bnaxhh_ZT6-139" value="" style="ellipse;whiteSpace=wrap;html=1;aspect=fixed;fillColor=light-dark(#e47d4e, #d28f70);fontColor=#ffffff;strokeColor=#6D1F00;shadow=1;align=center;verticalAlign=middle;fontFamily=Helvetica;fontSize=12;" parent="1" vertex="1">
          <mxGeometry x="210" y="170" width="10" height="10" as="geometry" />
        </mxCell>
        <mxCell id="QpFOkM9f67Bnaxhh_ZT6-140" value="" style="ellipse;whiteSpace=wrap;html=1;aspect=fixed;fillColor=light-dark(#e47d4e, #d28f70);fontColor=#ffffff;strokeColor=#6D1F00;shadow=1;align=center;verticalAlign=middle;fontFamily=Helvetica;fontSize=12;" parent="1" vertex="1">
          <mxGeometry x="220" y="160" width="10" height="10" as="geometry" />
        </mxCell>
        <mxCell id="QpFOkM9f67Bnaxhh_ZT6-142" value="" style="ellipse;whiteSpace=wrap;html=1;aspect=fixed;fillColor=light-dark(#e47d4e, #d28f70);fontColor=#ffffff;strokeColor=#6D1F00;shadow=1;align=center;verticalAlign=middle;fontFamily=Helvetica;fontSize=12;" parent="1" vertex="1">
          <mxGeometry x="210" y="160" width="10" height="10" as="geometry" />
        </mxCell>
        <mxCell id="QpFOkM9f67Bnaxhh_ZT6-143" value="" style="ellipse;whiteSpace=wrap;html=1;aspect=fixed;" parent="1" vertex="1">
          <mxGeometry x="200" y="160" width="10" height="10" as="geometry" />
        </mxCell>
        <mxCell id="QpFOkM9f67Bnaxhh_ZT6-144" value="" style="ellipse;whiteSpace=wrap;html=1;aspect=fixed;fillColor=light-dark(#e47d4e, #d28f70);fontColor=#ffffff;strokeColor=#6D1F00;shadow=1;align=center;verticalAlign=middle;fontFamily=Helvetica;fontSize=12;" parent="1" vertex="1">
          <mxGeometry x="200" y="170" width="10" height="10" as="geometry" />
        </mxCell>
        <mxCell id="QpFOkM9f67Bnaxhh_ZT6-145" value="" style="ellipse;whiteSpace=wrap;html=1;aspect=fixed;fillColor=light-dark(#e47d4e, #d28f70);fontColor=#ffffff;strokeColor=#6D1F00;shadow=1;align=center;verticalAlign=middle;fontFamily=Helvetica;fontSize=12;" parent="1" vertex="1">
          <mxGeometry x="190" y="170" width="10" height="10" as="geometry" />
        </mxCell>
        <mxCell id="QpFOkM9f67Bnaxhh_ZT6-146" value="" style="ellipse;whiteSpace=wrap;html=1;aspect=fixed;fillColor=light-dark(#e47d4e, #d28f70);fontColor=#ffffff;strokeColor=#6D1F00;shadow=1;align=center;verticalAlign=middle;fontFamily=Helvetica;fontSize=12;" parent="1" vertex="1">
          <mxGeometry x="180" y="170" width="10" height="10" as="geometry" />
        </mxCell>
        <mxCell id="QpFOkM9f67Bnaxhh_ZT6-147" value="" style="ellipse;whiteSpace=wrap;html=1;aspect=fixed;fillColor=light-dark(#e47d4e, #d28f70);fontColor=#ffffff;strokeColor=#6D1F00;shadow=1;align=center;verticalAlign=middle;fontFamily=Helvetica;fontSize=12;" parent="1" vertex="1">
          <mxGeometry x="170" y="170" width="10" height="10" as="geometry" />
        </mxCell>
        <mxCell id="QpFOkM9f67Bnaxhh_ZT6-148" value="" style="ellipse;whiteSpace=wrap;html=1;aspect=fixed;fillColor=light-dark(#e47d4e, #d28f70);fontColor=#ffffff;strokeColor=#6D1F00;shadow=1;align=center;verticalAlign=middle;fontFamily=Helvetica;fontSize=12;" parent="1" vertex="1">
          <mxGeometry x="160" y="170" width="10" height="10" as="geometry" />
        </mxCell>
        <mxCell id="QpFOkM9f67Bnaxhh_ZT6-149" value="" style="ellipse;whiteSpace=wrap;html=1;aspect=fixed;fillColor=light-dark(#e47d4e, #d28f70);fontColor=#ffffff;strokeColor=#6D1F00;shadow=1;align=center;verticalAlign=middle;fontFamily=Helvetica;fontSize=12;" parent="1" vertex="1">
          <mxGeometry x="150" y="170" width="10" height="10" as="geometry" />
        </mxCell>
        <mxCell id="QpFOkM9f67Bnaxhh_ZT6-150" value="" style="ellipse;whiteSpace=wrap;html=1;aspect=fixed;fillColor=light-dark(#e47d4e, #d28f70);fontColor=#ffffff;strokeColor=#6D1F00;shadow=1;align=center;verticalAlign=middle;fontFamily=Helvetica;fontSize=12;" parent="1" vertex="1">
          <mxGeometry x="160" y="180" width="10" height="10" as="geometry" />
        </mxCell>
        <mxCell id="QpFOkM9f67Bnaxhh_ZT6-151" value="" style="ellipse;whiteSpace=wrap;html=1;aspect=fixed;fillColor=light-dark(#e47d4e, #d28f70);fontColor=#ffffff;strokeColor=#6D1F00;shadow=1;align=center;verticalAlign=middle;fontFamily=Helvetica;fontSize=12;" parent="1" vertex="1">
          <mxGeometry x="170" y="180" width="10" height="10" as="geometry" />
        </mxCell>
        <mxCell id="QpFOkM9f67Bnaxhh_ZT6-152" value="" style="ellipse;whiteSpace=wrap;html=1;aspect=fixed;fillColor=light-dark(#e47d4e, #d28f70);fontColor=#ffffff;strokeColor=#6D1F00;shadow=1;align=center;verticalAlign=middle;fontFamily=Helvetica;fontSize=12;" parent="1" vertex="1">
          <mxGeometry x="180" y="180" width="10" height="10" as="geometry" />
        </mxCell>
        <mxCell id="QpFOkM9f67Bnaxhh_ZT6-153" value="" style="ellipse;whiteSpace=wrap;html=1;aspect=fixed;fillColor=light-dark(#e47d4e, #d28f70);fontColor=#ffffff;strokeColor=#6D1F00;shadow=1;align=center;verticalAlign=middle;fontFamily=Helvetica;fontSize=12;" parent="1" vertex="1">
          <mxGeometry x="190" y="180" width="10" height="10" as="geometry" />
        </mxCell>
        <mxCell id="QpFOkM9f67Bnaxhh_ZT6-154" value="" style="ellipse;whiteSpace=wrap;html=1;aspect=fixed;fillColor=light-dark(#e47d4e, #d28f70);fontColor=#ffffff;strokeColor=#6D1F00;shadow=1;align=center;verticalAlign=middle;fontFamily=Helvetica;fontSize=12;" parent="1" vertex="1">
          <mxGeometry x="130" y="140" width="10" height="10" as="geometry" />
        </mxCell>
        <mxCell id="QpFOkM9f67Bnaxhh_ZT6-155" value="" style="ellipse;whiteSpace=wrap;html=1;aspect=fixed;fillColor=light-dark(#e47d4e, #d28f70);fontColor=#ffffff;strokeColor=#6D1F00;shadow=1;align=center;verticalAlign=middle;fontFamily=Helvetica;fontSize=12;" parent="1" vertex="1">
          <mxGeometry x="140" y="140" width="10" height="10" as="geometry" />
        </mxCell>
        <mxCell id="QpFOkM9f67Bnaxhh_ZT6-157" value="" style="ellipse;whiteSpace=wrap;html=1;aspect=fixed;fillColor=light-dark(#e47d4e, #d28f70);fontColor=#ffffff;strokeColor=#6D1F00;shadow=1;align=center;verticalAlign=middle;fontFamily=Helvetica;fontSize=12;" parent="1" vertex="1">
          <mxGeometry x="140" y="160" width="10" height="10" as="geometry" />
        </mxCell>
        <mxCell id="QpFOkM9f67Bnaxhh_ZT6-158" value="" style="ellipse;whiteSpace=wrap;html=1;aspect=fixed;fillColor=light-dark(#e47d4e, #d28f70);fontColor=#ffffff;strokeColor=#6D1F00;shadow=1;align=center;verticalAlign=middle;fontFamily=Helvetica;fontSize=12;" parent="1" vertex="1">
          <mxGeometry x="140" y="150" width="10" height="10" as="geometry" />
        </mxCell>
        <mxCell id="QpFOkM9f67Bnaxhh_ZT6-159" value="" style="ellipse;whiteSpace=wrap;html=1;aspect=fixed;fillColor=light-dark(#e47d4e, #d28f70);fontColor=#ffffff;strokeColor=#6D1F00;shadow=1;align=center;verticalAlign=middle;fontFamily=Helvetica;fontSize=12;" parent="1" vertex="1">
          <mxGeometry x="150" y="160" width="10" height="10" as="geometry" />
        </mxCell>
        <mxCell id="QpFOkM9f67Bnaxhh_ZT6-160" value="" style="ellipse;whiteSpace=wrap;html=1;aspect=fixed;fillColor=light-dark(#e47d4e, #d28f70);fontColor=#ffffff;strokeColor=#6D1F00;shadow=1;align=center;verticalAlign=middle;fontFamily=Helvetica;fontSize=12;" parent="1" vertex="1">
          <mxGeometry x="160" y="160" width="10" height="10" as="geometry" />
        </mxCell>
        <mxCell id="QpFOkM9f67Bnaxhh_ZT6-161" value="" style="ellipse;whiteSpace=wrap;html=1;aspect=fixed;fillColor=light-dark(#e47d4e, #d28f70);fontColor=#ffffff;strokeColor=#6D1F00;shadow=1;align=center;verticalAlign=middle;fontFamily=Helvetica;fontSize=12;" parent="1" vertex="1">
          <mxGeometry x="170" y="160" width="10" height="10" as="geometry" />
        </mxCell>
        <mxCell id="QpFOkM9f67Bnaxhh_ZT6-162" value="" style="ellipse;whiteSpace=wrap;html=1;aspect=fixed;fillColor=light-dark(#e47d4e, #d28f70);fontColor=#ffffff;strokeColor=#6D1F00;shadow=1;align=center;verticalAlign=middle;fontFamily=Helvetica;fontSize=12;" parent="1" vertex="1">
          <mxGeometry x="180" y="160" width="10" height="10" as="geometry" />
        </mxCell>
        <mxCell id="QpFOkM9f67Bnaxhh_ZT6-163" value="" style="ellipse;whiteSpace=wrap;html=1;aspect=fixed;fillColor=light-dark(#e47d4e, #d28f70);fontColor=#ffffff;strokeColor=#6D1F00;shadow=1;align=center;verticalAlign=middle;fontFamily=Helvetica;fontSize=12;" parent="1" vertex="1">
          <mxGeometry x="190" y="160" width="10" height="10" as="geometry" />
        </mxCell>
        <mxCell id="QpFOkM9f67Bnaxhh_ZT6-164" value="" style="ellipse;whiteSpace=wrap;html=1;aspect=fixed;fillColor=light-dark(#e47d4e, #d28f70);fontColor=#ffffff;strokeColor=#6D1F00;shadow=1;align=center;verticalAlign=middle;fontFamily=Helvetica;fontSize=12;" parent="1" vertex="1">
          <mxGeometry x="200" y="160" width="10" height="10" as="geometry" />
        </mxCell>
        <mxCell id="QpFOkM9f67Bnaxhh_ZT6-166" value="" style="ellipse;whiteSpace=wrap;html=1;aspect=fixed;fillColor=light-dark(#e47d4e, #d28f70);fontColor=#ffffff;strokeColor=#6D1F00;shadow=1;align=center;verticalAlign=middle;fontFamily=Helvetica;fontSize=12;" parent="1" vertex="1">
          <mxGeometry x="160" y="318" width="10" height="10" as="geometry" />
        </mxCell>
        <mxCell id="QpFOkM9f67Bnaxhh_ZT6-167" value="" style="ellipse;whiteSpace=wrap;html=1;aspect=fixed;fillColor=light-dark(#e47d4e, #d28f70);fontColor=#ffffff;strokeColor=#6D1F00;shadow=1;align=center;verticalAlign=middle;fontFamily=Helvetica;fontSize=12;" parent="1" vertex="1">
          <mxGeometry x="170" y="307" width="10" height="10" as="geometry" />
        </mxCell>
        <mxCell id="QpFOkM9f67Bnaxhh_ZT6-168" value="" style="ellipse;whiteSpace=wrap;html=1;aspect=fixed;fillColor=light-dark(#e47d4e, #d28f70);fontColor=#ffffff;strokeColor=#6D1F00;shadow=1;align=center;verticalAlign=middle;fontFamily=Helvetica;fontSize=12;" parent="1" vertex="1">
          <mxGeometry x="184" y="330" width="10" height="10" as="geometry" />
        </mxCell>
        <mxCell id="QpFOkM9f67Bnaxhh_ZT6-169" value="" style="ellipse;whiteSpace=wrap;html=1;aspect=fixed;fillColor=light-dark(#e47d4e, #d28f70);fontColor=#ffffff;strokeColor=#6D1F00;shadow=1;align=center;verticalAlign=middle;fontFamily=Helvetica;fontSize=12;" parent="1" vertex="1">
          <mxGeometry x="170" y="319" width="10" height="10" as="geometry" />
        </mxCell>
        <mxCell id="QpFOkM9f67Bnaxhh_ZT6-172" value="" style="ellipse;whiteSpace=wrap;html=1;aspect=fixed;fillColor=light-dark(#e47d4e, #d28f70);fontColor=#ffffff;strokeColor=#6D1F00;shadow=1;align=center;verticalAlign=middle;fontFamily=Helvetica;fontSize=12;" parent="1" vertex="1">
          <mxGeometry x="160" y="306" width="10" height="10" as="geometry" />
        </mxCell>
        <mxCell id="QpFOkM9f67Bnaxhh_ZT6-173" value="" style="ellipse;whiteSpace=wrap;html=1;aspect=fixed;fillColor=light-dark(#e47d4e, #d28f70);fontColor=#ffffff;strokeColor=#6D1F00;shadow=1;align=center;verticalAlign=middle;fontFamily=Helvetica;fontSize=12;" parent="1" vertex="1">
          <mxGeometry x="148" y="306" width="10" height="10" as="geometry" />
        </mxCell>
        <mxCell id="QpFOkM9f67Bnaxhh_ZT6-174" value="" style="ellipse;whiteSpace=wrap;html=1;aspect=fixed;fillColor=light-dark(#e47d4e, #d28f70);fontColor=#ffffff;strokeColor=#6D1F00;shadow=1;align=center;verticalAlign=middle;fontFamily=Helvetica;fontSize=12;" parent="1" vertex="1">
          <mxGeometry x="150" y="318" width="10" height="10" as="geometry" />
        </mxCell>
        <mxCell id="QpFOkM9f67Bnaxhh_ZT6-175" value="" style="ellipse;whiteSpace=wrap;html=1;aspect=fixed;fillColor=light-dark(#e47d4e, #d28f70);fontColor=#ffffff;strokeColor=#6D1F00;shadow=1;align=center;verticalAlign=middle;fontFamily=Helvetica;fontSize=12;" parent="1" vertex="1">
          <mxGeometry x="163" y="330" width="10" height="10" as="geometry" />
        </mxCell>
        <mxCell id="QpFOkM9f67Bnaxhh_ZT6-176" value="" style="ellipse;whiteSpace=wrap;html=1;aspect=fixed;fillColor=light-dark(#e47d4e, #d28f70);fontColor=#ffffff;strokeColor=#6D1F00;shadow=1;align=center;verticalAlign=middle;fontFamily=Helvetica;fontSize=12;" parent="1" vertex="1">
          <mxGeometry x="174" y="330" width="10" height="10" as="geometry" />
        </mxCell>
        <mxCell id="QpFOkM9f67Bnaxhh_ZT6-177" value="" style="ellipse;whiteSpace=wrap;html=1;aspect=fixed;fillColor=light-dark(#e47d4e, #d28f70);fontColor=#ffffff;strokeColor=#6D1F00;shadow=1;align=center;verticalAlign=middle;fontFamily=Helvetica;fontSize=12;" parent="1" vertex="1">
          <mxGeometry x="195" y="330" width="10" height="10" as="geometry" />
        </mxCell>
        <mxCell id="QpFOkM9f67Bnaxhh_ZT6-179" value="" style="ellipse;whiteSpace=wrap;html=1;aspect=fixed;fillColor=light-dark(#e47d4e, #d28f70);fontColor=#ffffff;strokeColor=#6D1F00;shadow=1;align=center;verticalAlign=middle;fontFamily=Helvetica;fontSize=12;" parent="1" vertex="1">
          <mxGeometry x="200" y="318" width="10" height="10" as="geometry" />
        </mxCell>
        <mxCell id="QpFOkM9f67Bnaxhh_ZT6-180" value="" style="ellipse;whiteSpace=wrap;html=1;aspect=fixed;fillColor=light-dark(#e47d4e, #d28f70);fontColor=#ffffff;strokeColor=#6D1F00;shadow=1;align=center;verticalAlign=middle;fontFamily=Helvetica;fontSize=12;" parent="1" vertex="1">
          <mxGeometry x="200" y="307" width="10" height="10" as="geometry" />
        </mxCell>
        <mxCell id="QpFOkM9f67Bnaxhh_ZT6-181" value="" style="ellipse;whiteSpace=wrap;html=1;aspect=fixed;fillColor=light-dark(#e47d4e, #d28f70);fontColor=#ffffff;strokeColor=#6D1F00;shadow=1;align=center;verticalAlign=middle;fontFamily=Helvetica;fontSize=12;" parent="1" vertex="1">
          <mxGeometry x="190" y="318" width="10" height="10" as="geometry" />
        </mxCell>
        <mxCell id="QpFOkM9f67Bnaxhh_ZT6-182" value="" style="ellipse;whiteSpace=wrap;html=1;aspect=fixed;fillColor=light-dark(#e47d4e, #d28f70);fontColor=#ffffff;strokeColor=#6D1F00;shadow=1;align=center;verticalAlign=middle;fontFamily=Helvetica;fontSize=12;" parent="1" vertex="1">
          <mxGeometry x="179" y="319" width="10" height="10" as="geometry" />
        </mxCell>
        <mxCell id="QpFOkM9f67Bnaxhh_ZT6-183" value="" style="ellipse;whiteSpace=wrap;html=1;aspect=fixed;fillColor=light-dark(#e47d4e, #d28f70);fontColor=#ffffff;strokeColor=#6D1F00;shadow=1;align=center;verticalAlign=middle;fontFamily=Helvetica;fontSize=12;" parent="1" vertex="1">
          <mxGeometry x="180" y="306" width="10" height="10" as="geometry" />
        </mxCell>
        <mxCell id="QpFOkM9f67Bnaxhh_ZT6-184" value="" style="ellipse;whiteSpace=wrap;html=1;aspect=fixed;fillColor=light-dark(#e47d4e, #d28f70);fontColor=#ffffff;strokeColor=#6D1F00;shadow=1;align=center;verticalAlign=middle;fontFamily=Helvetica;fontSize=12;" parent="1" vertex="1">
          <mxGeometry x="190" y="306" width="10" height="10" as="geometry" />
        </mxCell>
        <mxCell id="QpFOkM9f67Bnaxhh_ZT6-191" value="" style="ellipse;whiteSpace=wrap;html=1;aspect=fixed;fillColor=light-dark(#e47d4e, #d28f70);fontColor=#ffffff;strokeColor=#6D1F00;shadow=1;align=center;verticalAlign=middle;fontFamily=Helvetica;fontSize=12;" parent="1" vertex="1">
          <mxGeometry x="153" y="329" width="10" height="10" as="geometry" />
        </mxCell>
        <mxCell id="QpFOkM9f67Bnaxhh_ZT6-194" value="" style="endArrow=none;dashed=1;html=1;rounded=0;dashPattern=1 4;" parent="1" edge="1">
          <mxGeometry width="50" height="50" relative="1" as="geometry">
            <mxPoint x="120" y="380" as="sourcePoint" />
            <mxPoint x="401.5" y="380" as="targetPoint" />
          </mxGeometry>
        </mxCell>
        <mxCell id="wkbVZkU-VHNads3LhF48-1" value="" style="shape=image;html=1;verticalAlign=top;verticalLabelPosition=bottom;labelBackgroundColor=#ffffff;imageAspect=0;aspect=fixed;image=https://icons.diagrams.net/icon-cache1/Phosphor_Fill_Vol_4-2938/sim-card-fill-1404.svg" vertex="1" parent="1">
          <mxGeometry x="309" y="280" width="69" height="69" as="geometry" />
        </mxCell>
        <mxCell id="wkbVZkU-VHNads3LhF48-25" style="edgeStyle=orthogonalEdgeStyle;rounded=0;orthogonalLoop=1;jettySize=auto;html=1;entryX=1;entryY=0.5;entryDx=0;entryDy=0;startArrow=classic;startFill=1;endArrow=none;endFill=0;" edge="1" parent="1" target="QpFOkM9f67Bnaxhh_ZT6-137">
          <mxGeometry relative="1" as="geometry">
            <mxPoint x="310" y="210" as="sourcePoint" />
            <Array as="points">
              <mxPoint x="270" y="210" />
              <mxPoint x="270" y="185" />
            </Array>
          </mxGeometry>
        </mxCell>
        <mxCell id="wkbVZkU-VHNads3LhF48-28" style="edgeStyle=orthogonalEdgeStyle;rounded=0;orthogonalLoop=1;jettySize=auto;html=1;exitX=0.5;exitY=1;exitDx=0;exitDy=0;entryX=0.5;entryY=0;entryDx=0;entryDy=0;" edge="1" parent="1" source="wkbVZkU-VHNads3LhF48-3" target="wkbVZkU-VHNads3LhF48-1">
          <mxGeometry relative="1" as="geometry" />
        </mxCell>
        <mxCell id="wkbVZkU-VHNads3LhF48-3" value="" style="image;aspect=fixed;perimeter=ellipsePerimeter;html=1;align=center;shadow=0;dashed=0;fontColor=#4277BB;labelBackgroundColor=default;fontSize=12;spacingTop=3;image=img/lib/ibm/users/sensor.svg;" vertex="1" parent="1">
          <mxGeometry x="323" y="190" width="40" height="40" as="geometry" />
        </mxCell>
        <mxCell id="wkbVZkU-VHNads3LhF48-29" value="" style="endArrow=none;dashed=1;html=1;rounded=0;dashPattern=1 4;" edge="1" parent="1">
          <mxGeometry width="50" height="50" relative="1" as="geometry">
            <mxPoint x="400" y="160" as="sourcePoint" />
            <mxPoint x="400.5" y="380" as="targetPoint" />
          </mxGeometry>
        </mxCell>
        <mxCell id="wkbVZkU-VHNads3LhF48-30" value="" style="sketch=0;points=[[0.015,0.015,0],[0.985,0.015,0],[0.985,0.985,0],[0.015,0.985,0],[0.25,0,0],[0.5,0,0],[0.75,0,0],[1,0.25,0],[1,0.5,0],[1,0.75,0],[0.75,1,0],[0.5,1,0],[0.25,1,0],[0,0.75,0],[0,0.5,0],[0,0.25,0]];verticalLabelPosition=bottom;html=1;verticalAlign=top;aspect=fixed;align=center;pointerEvents=1;shape=mxgraph.cisco19.cell_phone;fillColor=#005073;strokeColor=none;" vertex="1" parent="1">
          <mxGeometry x="520" y="144.5" width="43.25" height="86.5" as="geometry" />
        </mxCell>
        <mxCell id="wkbVZkU-VHNads3LhF48-31" style="edgeStyle=orthogonalEdgeStyle;rounded=0;orthogonalLoop=1;jettySize=auto;html=1;entryX=0.5;entryY=1;entryDx=0;entryDy=0;entryPerimeter=0;" edge="1" parent="1" source="wkbVZkU-VHNads3LhF48-32" target="wkbVZkU-VHNads3LhF48-30">
          <mxGeometry relative="1" as="geometry" />
        </mxCell>
        <mxCell id="wkbVZkU-VHNads3LhF48-33" value="" style="edgeStyle=orthogonalEdgeStyle;rounded=0;orthogonalLoop=1;jettySize=auto;html=1;endArrow=classic;endFill=1;" edge="1" parent="1" source="wkbVZkU-VHNads3LhF48-1" target="wkbVZkU-VHNads3LhF48-32">
          <mxGeometry relative="1" as="geometry">
            <mxPoint x="378" y="315" as="sourcePoint" />
            <mxPoint x="532" y="288" as="targetPoint" />
          </mxGeometry>
        </mxCell>
        <mxCell id="wkbVZkU-VHNads3LhF48-32" value="" style="dashed=0;outlineConnect=0;html=1;align=center;labelPosition=center;verticalLabelPosition=bottom;verticalAlign=top;shape=mxgraph.webicons.sms;fillColor=#86D466;gradientColor=#42B418" vertex="1" parent="1">
          <mxGeometry x="521.25" y="290.5" width="42" height="48" as="geometry" />
        </mxCell>
        <mxCell id="wkbVZkU-VHNads3LhF48-36" value="" style="endArrow=none;html=1;rounded=0;startSize=6;endSize=6;" edge="1" parent="1">
          <mxGeometry width="50" height="50" relative="1" as="geometry">
            <mxPoint x="178" y="351" as="sourcePoint" />
            <mxPoint x="178" y="410" as="targetPoint" />
          </mxGeometry>
        </mxCell>
        <mxCell id="wkbVZkU-VHNads3LhF48-40" value="" style="endArrow=none;html=1;rounded=0;startSize=6;endSize=6;" edge="1" parent="1" source="wkbVZkU-VHNads3LhF48-39">
          <mxGeometry width="50" height="50" relative="1" as="geometry">
            <mxPoint x="343" y="131" as="sourcePoint" />
            <mxPoint x="343" y="190" as="targetPoint" />
          </mxGeometry>
        </mxCell>
        <mxCell id="wkbVZkU-VHNads3LhF48-41" value="GSM Module" style="whiteSpace=wrap;html=1;aspect=fixed;" vertex="1" parent="1">
          <mxGeometry x="316" y="410" width="50" height="50" as="geometry" />
        </mxCell>
        <mxCell id="wkbVZkU-VHNads3LhF48-42" value="Load Cell" style="whiteSpace=wrap;html=1;aspect=fixed;" vertex="1" parent="1">
          <mxGeometry x="153" y="410" width="50" height="50" as="geometry" />
        </mxCell>
        <mxCell id="wkbVZkU-VHNads3LhF48-45" value="" style="endArrow=none;html=1;rounded=0;startSize=6;endSize=6;" edge="1" parent="1">
          <mxGeometry width="50" height="50" relative="1" as="geometry">
            <mxPoint x="342" y="340" as="sourcePoint" />
            <mxPoint x="342" y="410" as="targetPoint" />
          </mxGeometry>
        </mxCell>
        <mxCell id="wkbVZkU-VHNads3LhF48-48" style="edgeStyle=orthogonalEdgeStyle;rounded=0;orthogonalLoop=1;jettySize=auto;html=1;exitX=0.5;exitY=1;exitDx=0;exitDy=0;entryX=0;entryY=0.5;entryDx=0;entryDy=0;endArrow=none;endFill=0;" edge="1" parent="1" source="wkbVZkU-VHNads3LhF48-46" target="QpFOkM9f67Bnaxhh_ZT6-8">
          <mxGeometry relative="1" as="geometry" />
        </mxCell>
        <mxCell id="wkbVZkU-VHNads3LhF48-46" value="Real-Time Clock" style="whiteSpace=wrap;html=1;aspect=fixed;" vertex="1" parent="1">
          <mxGeometry x="20" y="40" width="60" height="60" as="geometry" />
        </mxCell>
        <mxCell id="wkbVZkU-VHNads3LhF48-51" style="edgeStyle=orthogonalEdgeStyle;rounded=0;orthogonalLoop=1;jettySize=auto;html=1;entryX=0;entryY=0.5;entryDx=0;entryDy=0;endArrow=none;endFill=0;" edge="1" parent="1" source="wkbVZkU-VHNads3LhF48-50" target="QpFOkM9f67Bnaxhh_ZT6-9">
          <mxGeometry relative="1" as="geometry" />
        </mxCell>
        <mxCell id="wkbVZkU-VHNads3LhF48-50" value="Servo Motor" style="whiteSpace=wrap;html=1;aspect=fixed;" vertex="1" parent="1">
          <mxGeometry x="20" y="191" width="50" height="50" as="geometry" />
        </mxCell>
        <mxCell id="wkbVZkU-VHNads3LhF48-52" value="User Phone" style="whiteSpace=wrap;html=1;aspect=fixed;" vertex="1" parent="1">
          <mxGeometry x="645" y="171" width="50" height="50" as="geometry" />
        </mxCell>
        <mxCell id="wkbVZkU-VHNads3LhF48-53" style="edgeStyle=orthogonalEdgeStyle;rounded=0;orthogonalLoop=1;jettySize=auto;html=1;entryX=0.879;entryY=0.595;entryDx=0;entryDy=0;entryPerimeter=0;endArrow=none;endFill=0;" edge="1" parent="1" source="wkbVZkU-VHNads3LhF48-52">
          <mxGeometry relative="1" as="geometry">
            <mxPoint x="563.01675" y="195.96749999999997" as="targetPoint" />
          </mxGeometry>
        </mxCell>
        <mxCell id="wkbVZkU-VHNads3LhF48-54" value="Error Alert" style="whiteSpace=wrap;html=1;aspect=fixed;" vertex="1" parent="1">
          <mxGeometry x="520" y="410" width="50" height="50" as="geometry" />
        </mxCell>
        <mxCell id="wkbVZkU-VHNads3LhF48-56" style="edgeStyle=orthogonalEdgeStyle;rounded=0;orthogonalLoop=1;jettySize=auto;html=1;exitX=0.5;exitY=0;exitDx=0;exitDy=0;entryX=0.565;entryY=1.031;entryDx=0;entryDy=0;entryPerimeter=0;endArrow=none;endFill=0;" edge="1" parent="1" source="wkbVZkU-VHNads3LhF48-54" target="wkbVZkU-VHNads3LhF48-32">
          <mxGeometry relative="1" as="geometry" />
        </mxCell>
        <mxCell id="wkbVZkU-VHNads3LhF48-60" style="edgeStyle=orthogonalEdgeStyle;rounded=0;orthogonalLoop=1;jettySize=auto;html=1;entryX=0;entryY=0.5;entryDx=0;entryDy=0;endArrow=none;endFill=0;" edge="1" parent="1" source="wkbVZkU-VHNads3LhF48-59" target="QpFOkM9f67Bnaxhh_ZT6-174">
          <mxGeometry relative="1" as="geometry" />
        </mxCell>
        <mxCell id="wkbVZkU-VHNads3LhF48-59" value="Food Bowl" style="whiteSpace=wrap;html=1;aspect=fixed;" vertex="1" parent="1">
          <mxGeometry x="20" y="298" width="50" height="50" as="geometry" />
        </mxCell>
        <mxCell id="wkbVZkU-VHNads3LhF48-63" value="" style="endArrow=none;html=1;rounded=0;startSize=6;endSize=6;" edge="1" parent="1" target="wkbVZkU-VHNads3LhF48-39">
          <mxGeometry width="50" height="50" relative="1" as="geometry">
            <mxPoint x="343" y="131" as="sourcePoint" />
            <mxPoint x="343" y="190" as="targetPoint" />
          </mxGeometry>
        </mxCell>
        <mxCell id="wkbVZkU-VHNads3LhF48-39" value="Sonar Sensor" style="whiteSpace=wrap;html=1;aspect=fixed;" vertex="1" parent="1">
          <mxGeometry x="318.5" y="94.5" width="50" height="50" as="geometry" />
        </mxCell>
        <mxCell id="wkbVZkU-VHNads3LhF48-65" style="edgeStyle=orthogonalEdgeStyle;rounded=0;orthogonalLoop=1;jettySize=auto;html=1;exitX=0;exitY=0.5;exitDx=0;exitDy=0;endArrow=none;endFill=0;" edge="1" parent="1" source="wkbVZkU-VHNads3LhF48-64">
          <mxGeometry relative="1" as="geometry">
            <mxPoint x="240" y="55" as="targetPoint" />
          </mxGeometry>
        </mxCell>
        <mxCell id="wkbVZkU-VHNads3LhF48-64" value="Food Tank" style="whiteSpace=wrap;html=1;aspect=fixed;" vertex="1" parent="1">
          <mxGeometry x="318.5" y="30" width="50" height="50" as="geometry" />
        </mxCell>
      </root>
    </mxGraphModel>
  </diagram>
</mxfile>
